<svg xmlns="http://www.w3.org/2000/svg" width="72" height="72" fill="none"><rect id="backgroundrect" width="100%" height="100%" x="0" y="0" fill="none" stroke="none"/>





<defs>
<filter id="filter0_d_1_11115" x="0.5" y="0.4423829913139343" width="112" height="112" filterUnits="userSpaceOnUse" color-interpolation-filters="sRGB">
<feFlood flood-opacity="0" result="BackgroundImageFix"/>
<feColorMatrix in="SourceAlpha" type="matrix" values="0 0 0 0 0 0 0 0 0 0 0 0 0 0 0 0 0 0 127 0" result="hardAlpha"/>
<feOffset dy="10"/>
<feGaussianBlur stdDeviation="10"/>
<feColorMatrix type="matrix" values="0 0 0 0 0.929412 0 0 0 0 0.752941 0 0 0 0 0.470588 0 0 0 0.2 0"/>
<feBlend mode="normal" in2="BackgroundImageFix" result="effect1_dropShadow_1_11115"/>
<feBlend mode="normal" in="SourceGraphic" in2="effect1_dropShadow_1_11115" result="shape"/>
</filter>
</defs>
<g class="currentLayer" style=""><title>Layer 1</title><g filter="url(#filter0_d_1_11115)" id="svg_1" class="">
<circle cx="36" cy="36" r="36" fill="#E3B873" id="svg_2"/>
</g><path d="M36.3396,43.27819811401367 C35.9614,43.27819811401367 35.6526,43.57749811401367 35.6526,43.94929811401367 V45.27389811401367 C35.6526,45.64569811401367 35.9614,45.944898114013675 36.3396,45.944898114013675 C36.7178,45.944898114013675 37.0265,45.64569811401367 37.0265,45.27389811401367 V43.94929811401367 C37.0265,43.57749811401367 36.7178,43.27819811401367 36.3396,43.27819811401367 z" fill="white" stroke="white" stroke-width="0.1" id="svg_3" class=""/><path d="M53.058099999999996,34.00039811401367 L53.058099999999996,34.000298114013674 C52.606899999999996,31.842498114013672 51.5951,29.80839811401367 50.132099999999994,28.117798114013674 C48.723699999999994,26.490198114013673 46.921400000000006,25.20889811401367 44.9118,24.40129811401367 C44.582800000000006,23.06529811401367 43.892700000000005,21.687598114013674 42.5386,20.650198114013673 C41.2205,19.64049811401367 39.8931,19.445798114013673 39.8338,19.43749811401367 L39.8338,19.43749811401367 C39.6374,19.41019811401367 39.4377,19.467198114013673 39.2872,19.59449811401367 C39.1366,19.721798114013673 39.0498,19.90679811401367 39.0498,20.101798114013672 V23.40539811401367 H36.8254 C36.236,21.491298114013674 34.4142,20.09329811401367 32.2634,20.09329811401367 C30.065199999999997,20.09329811401367 28.209600000000002,21.55319811401367 27.663200000000003,23.53229811401367 C24.5152,23.958098114013673 21.6197,25.44879811401367 19.4692,27.762298114013674 L19.505899999999997,27.796298114013673 L19.4692,27.762298114013674 C17.200000000000003,30.203798114013672 15.950000000000003,33.364598114013674 15.950000000000003,36.66239811401367 C15.950000000000003,44.05199811401367 19.883899999999997,50.06229811401367 21.089100000000002,51.72779811401367 C21.4705,52.25489811401367 22.094499999999996,52.56909811401367 22.758200000000002,52.56909811401367 H25.4692 C26.5961,52.56909811401367 27.515,51.674998114013675 27.515,50.57319811401367 V49.77159811401367 C28.1849,49.869298114013674 28.8649,49.919398114013674 29.545699999999997,49.919398114013674 H35.6528 V50.57319811401367 C35.6528,51.674998114013675 36.5717,52.56909811401367 37.6986,52.56909811401367 H40.6765 C41.634,52.56909811401367 42.4756,51.90669811401367 42.6767,50.99169811401367 L42.9969,49.535198114013674 C47.173,48.53359811401367 50.532399999999996,45.677098114013674 52.195899999999995,41.97049811401367 H54.6837 C55.435900000000004,41.97049811401367 56.05,41.373598114013674 56.05,40.637098114013675 V35.33759811401367 C56.05,34.98099811401367 55.9075,34.64579811401367 55.6493,34.39409811401367 C55.3912,34.14249811401367 55.0483,34.00409811401367 54.683800000000005,34.00409811401367 H54.6837 H54.6837 H54.6837 H54.6836 H54.6836 H54.6836 H54.683499999999995 L53.059200000000004,34.00429811401367 C53.0587,34.00299811401367 53.058400000000006,34.00169811401367 53.058099999999996,34.00039811401367 zM54.676199999999994,40.58689811401367 H54.676100000000005 V40.62839811401367 H52.7111 C53.046899999999994,39.58479811401367 53.2538,38.48889811401367 53.3138,37.35959811401367 C53.33369999999999,36.98829811401367 53.0411,36.67379811401367 52.66330000000001,36.65469811401367 C52.285700000000006,36.635998114013674 51.9615,36.91869811401367 51.9418,37.28999811401367 C51.6746,42.312598114013674 48.186099999999996,46.60619811401367 43.3218,48.056398114013675 L44.1936,44.09009811401367 C44.2736,43.72649811401367 44.035799999999995,43.370398114013675 43.6656,43.293098114013674 C43.2961,43.21559811401367 42.9301,43.44519811401367 42.8503,43.80839811401367 L41.3334,50.70989811401367 C41.2678,51.00849811401367 40.9919,51.226998114013675 40.6765,51.226998114013675 H37.6984 C37.3268,51.226998114013675 37.0266,50.93239811401367 37.0266,50.57319811401367 V47.92339811401367 C37.0266,47.55159811401367 36.7178,47.25239811401367 36.3396,47.25239811401367 C35.9614,47.25239811401367 35.6527,47.55159811401367 35.6527,47.92339811401367 V48.57729811401367 H29.545499999999997 C28.8637,48.57729811401367 28.183100000000003,48.521298114013675 27.5148,48.41249811401367 V43.94899811401367 C27.5148,43.57719811401367 27.2061,43.27799811401367 26.8279,43.27799811401367 C26.4497,43.27799811401367 26.140900000000002,43.57719811401367 26.140900000000002,43.94899811401367 V50.57319811401367 C26.140900000000002,50.93249811401367 25.8407,51.22709811401367 25.469099999999997,51.22709811401367 H22.758200000000002 C22.5355,51.22709811401367 22.336599999999997,51.126998114013674 22.211100000000002,50.95329811401367 L22.211100000000002,50.95329811401367 C21.064100000000003,49.36799811401367 17.323900000000002,43.654198114013674 17.323900000000002,36.66229811401367 C17.323900000000002,33.69889811401367 18.4469,30.858598114013674 20.486400000000003,28.66439811401367 L20.449800000000003,28.630398114013673 L20.486400000000003,28.66439811401367 C22.3401,26.669998114013673 24.809199999999997,25.355798114013673 27.503700000000002,24.91369811401367 C27.518700000000003,25.301698114013675 27.583399999999997,25.685198114013673 27.695,26.05499811401367 H27.507399999999997 C27.129199999999997,26.05499811401367 26.820500000000003,26.35419811401367 26.820500000000003,26.72599811401367 C26.820500000000003,27.09779811401367 27.129199999999997,27.397098114013673 27.507399999999997,27.397098114013673 H37.0191 C37.3974,27.397098114013673 37.7061,27.09779811401367 37.7061,26.72599811401367 C37.7061,26.35419811401367 37.3974,26.05499811401367 37.0191,26.05499811401367 H36.8315 C36.9592,25.63249811401367 37.0258,25.19199811401367 37.0266,24.747298114013674 H39.0498 V26.063598114013672 C39.0498,26.435398114013672 39.3585,26.73459811401367 39.7367,26.73459811401367 C40.1149,26.73459811401367 40.4237,26.435398114013672 40.4237,26.063598114013672 V20.98949811401367 C41.018299999999996,21.218698114013673 41.843,21.667198114013672 42.5288,22.52269811401367 C43.2404,23.410198114013674 43.8056,24.739598114013674 43.8056,26.726098114013674 C43.8056,27.097898114013674 44.1144,27.397098114013673 44.492599999999996,27.397098114013673 C44.8708,27.397098114013673 45.179500000000004,27.097898114013674 45.179500000000004,26.726098114013674 C45.179500000000004,26.48819811401367 45.1716,26.23839811401367 45.1536,25.98049811401367 C46.652699999999996,26.70539811401367 47.9978,27.730398114013674 49.082899999999995,28.98429811401367 C50.3977,30.50379811401367 51.306799999999996,32.331198114013674 51.712,34.26899811401367 C51.842600000000004,34.89389811401367 52.4049,35.34649811401367 53.0487,35.346398114013674 L54.676199999999994,35.34629811401367 V40.58689811401367 zM32.2633,21.435398114013672 C34.1334,21.435398114013672 35.6527,22.91859811401367 35.6527,24.738898114013672 C35.6527,25.19369811401367 35.5552,25.641998114013674 35.371,26.055098114013674 H29.155500000000004 C28.971400000000003,25.64189811401367 28.8737,25.19369811401367 28.8737,24.738898114013672 C28.8737,22.918498114013673 30.393099999999997,21.435398114013672 32.2633,21.435398114013672 z" fill="white" stroke="white" stroke-width="0.1" id="svg_4" class=""/><path d="M43.91160000000001,34.440398114013675 L43.91160000000001,34.440398114013675 C44.315,33.38569811401367 45.380799999999994,32.67939811401367 46.5621,32.67939811401367 C47.743300000000005,32.67939811401367 48.80929999999999,33.38569811401367 49.212500000000006,34.440398114013675 C49.212500000000006,34.440398114013675 49.212500000000006,34.440398114013675 49.212500000000006,34.44049811401367 L49.165800000000004,34.45829811401367 C49.288700000000006,34.77959811401367 49.1211,35.137298114013674 48.7915,35.25709811401367 L43.91160000000001,34.440398114013675 zM43.91160000000001,34.440398114013675 C43.778400000000005,34.78879811401367 43.960499999999996,35.17509811401367 44.3155,35.30409811401367 M43.91160000000001,34.440398114013675 L44.3155,35.30409811401367 M44.3155,35.30409811401367 C44.67,35.433098114013674 45.06570000000001,35.25769811401367 45.1986,34.909998114013675 L44.3155,35.30409811401367 zM48.569100000000006,35.346398114013674 C48.648799999999994,35.346398114013674 48.729699999999994,35.33279811401367 48.8086,35.30409811401367 L45.1986,34.909998114013675 C45.4011,34.38049811401367 45.947900000000004,34.02139811401367 46.562,34.02139811401367 C47.176100000000005,34.02139811401367 47.723,34.38049811401367 47.9255,34.909998114013675 C48.02889999999999,35.18049811401367 48.29130000000001,35.346398114013674 48.569100000000006,35.346398114013674 z" fill="white" stroke="white" stroke-width="0.1" id="svg_5" class=""/><path d="M35.2116,37.07569811401367 C34.5601,36.633898114013675 33.7201,36.36319811401367 32.9502,36.15089811401367 V33.07189811401367 C33.5451,33.149098114013675 34.0484,33.321398114013675 34.4047,33.53409811401367 C34.7758,33.75579811401367 34.9733,34.012098114013675 34.9733,34.24059811401367 C34.9733,34.61239811401367 35.2821,34.91159811401367 35.6603,34.91159811401367 C36.0385,34.91159811401367 36.3472,34.61239811401367 36.3472,34.24059811401367 C36.3472,33.58499811401367 35.9732,32.99889811401367 35.3589,32.55569811401367 C34.754,32.119298114013674 33.9127,31.81819811401367 32.9502,31.72039811401367 V31.694398114013673 C32.9502,31.322598114013672 32.6414,31.02329811401367 32.2632,31.02329811401367 C31.884999999999998,31.02329811401367 31.576300000000003,31.322598114013672 31.576300000000003,31.694398114013673 V31.72039811401367 C30.613799999999998,31.81819811401367 29.772399999999998,32.119298114013674 29.1676,32.55569811401367 C28.5533,32.99889811401367 28.1792,33.58499811401367 28.1792,34.24059811401367 C28.1792,35.168098114013674 28.650799999999997,35.79899811401367 29.3149,36.24939811401367 C29.966299999999997,36.69119811401367 30.806400000000004,36.96189811401367 31.576300000000003,37.17419811401367 V40.253098114013675 C30.9814,40.17599811401367 30.478099999999998,40.00369811401367 30.1218,39.79089811401367 C29.7506,39.56929811401367 29.553199999999997,39.31299811401367 29.553199999999997,39.08449811401367 C29.553199999999997,38.71269811401367 29.2444,38.41349811401367 28.8662,38.41349811401367 C28.488,38.41349811401367 28.1792,38.71269811401367 28.1792,39.08449811401367 C28.1792,39.74009811401367 28.5533,40.32619811401367 29.1676,40.76939811401367 C29.772399999999998,41.205798114013675 30.613799999999998,41.50679811401367 31.576300000000003,41.60469811401367 V41.63069811401367 C31.576300000000003,42.00249811401367 31.884999999999998,42.301698114013675 32.2632,42.301698114013675 C32.6414,42.301698114013675 32.9502,42.00249811401367 32.9502,41.63069811401367 V41.60469811401367 C33.9127,41.50679811401367 34.754,41.205798114013675 35.3589,40.76939811401367 C35.9732,40.32619811401367 36.3472,39.74009811401367 36.3472,39.08449811401367 C36.3472,38.15689811401367 35.8757,37.525998114013674 35.2116,37.07569811401367 zM31.576300000000003,33.07189811401367 V35.768098114013675 C30.8286,35.53579811401367 30.324800000000003,35.31459811401367 30.006700000000002,35.07319811401367 C29.682699999999997,34.82749811401367 29.553199999999997,34.56269811401367 29.553199999999997,34.24059811401367 C29.553199999999997,34.012098114013675 29.7506,33.75579811401367 30.1218,33.53409811401367 C30.478099999999998,33.321398114013675 30.9814,33.149098114013675 31.576300000000003,33.07189811401367 zM34.4047,39.790998114013675 C34.0484,40.00379811401367 33.545,40.17609811401367 32.9502,40.25319811401367 V37.55699811401367 C33.6979,37.789298114013675 34.2016,38.01049811401367 34.5198,38.25189811401367 C34.8437,38.49759811401367 34.9733,38.762498114013674 34.9733,39.08459811401367 C34.9733,39.31299811401367 34.7758,39.56929811401367 34.4047,39.790998114013675 z" fill="white" stroke="white" stroke-width="0.1" id="svg_6" class=""/></g></svg>